<?xml version="1.0" encoding="UTF-8"?>
<svg width="14px" height="17px" viewBox="0 0 14 17" version="1.1" xmlns="http://www.w3.org/2000/svg" xmlns:xlink="http://www.w3.org/1999/xlink">
    <!-- Generator: Sketch 55.1 (78136) - https://sketchapp.com -->
    <title>密码</title>
    <desc>Created with Sketch.</desc>
    <g id="标注-版" stroke="none" stroke-width="1" fill="none" fill-rule="evenodd">
        <g id="8首次登录" transform="translate(-530.000000, -331.000000)" fill="#B6BFC5" fill-rule="nonzero">
            <g id="左侧图片" transform="translate(476.000000, 193.000000)">
                <g id="组-3">
                    <g id="请登录1-拷贝" transform="translate(52.000000, 30.000000)">
                        <g id="密码" transform="translate(0.000000, 108.000000)">
                            <g transform="translate(2.000000, 0.000000)" id="Shape">
                                <path d="M11.014008,16.258072 L2.01457697,16.258072 C0.910897966,16.258072 0.0142924791,15.3107043 0.0142924791,14.1442615 L0.0142924791,7.80777921 C0.0142924791,6.64298614 0.910916096,5.69565471 2.01457697,5.69565471 L2.53351169,5.69565471 C2.48035641,5.43218077 2.45180268,5.16083868 2.45180268,4.88311506 L2.45180268,4.07061166 C2.45180268,1.82670486 4.27041288,0.00813091922 6.51429248,0.00813091922 C8.75739252,0.00813091922 10.5768367,1.82670486 10.5768367,4.07061166 L10.5768367,4.88309693 C10.5768367,5.16082055 10.5482467,5.43216264 10.4950914,5.69563658 L11.014008,5.69563658 C12.1168893,5.69563658 13.0142925,6.64296801 13.0142925,7.80776108 L13.0142925,14.1442615 C13.0142925,15.3107043 12.1168893,16.258072 11.014008,16.258072 L11.014008,16.258072 Z M5.70179814,11.160967 L5.70179814,13.008149 C5.70179814,13.4556178 6.06603506,13.8206343 6.51430154,13.8206343 C6.96256803,13.8206343 7.32678681,13.4555997 7.32678681,13.008149 L7.32678681,11.160967 C7.81948835,10.8816661 8.15509901,10.3611541 8.15509901,9.75809919 C8.15509901,8.85988019 7.42040681,8.13311052 6.51428341,8.13311052 C5.60736232,8.13311052 4.87261574,8.85988019 4.87261574,9.75809919 C4.87261574,10.361136 5.20904222,10.881648 5.70179814,11.160967 L5.70179814,11.160967 Z M8.95175735,4.07061166 C8.95175735,2.72410804 7.86085955,1.63310146 6.51430154,1.63310146 C5.16783419,1.63310146 4.07677322,2.72410804 4.07677322,4.07061166 L4.07677322,5.69563658 L8.95175735,5.69563658 L8.95175735,4.07061166 Z"></path>
                            </g>
                        </g>
                    </g>
                </g>
            </g>
        </g>
    </g>
</svg>