<?xml version="1.0" encoding="UTF-8"?>
<svg width="15px" height="17px" viewBox="0 0 15 17" version="1.1" xmlns="http://www.w3.org/2000/svg" xmlns:xlink="http://www.w3.org/1999/xlink">
    <!-- Generator: Sketch 55.1 (78136) - https://sketchapp.com -->
    <title>用户名</title>
    <desc>Created with Sketch.</desc>
    <g id="标注-版" stroke="none" stroke-width="1" fill="none" fill-rule="evenodd">
        <g id="8首次登录" transform="translate(-530.000000, -268.000000)" fill="#B6BFC5" fill-rule="nonzero">
            <g id="左侧图片" transform="translate(476.000000, 193.000000)">
                <g id="组-3">
                    <g id="请登录1-拷贝" transform="translate(52.000000, 30.000000)">
                        <g id="用户名" transform="translate(0.000000, 45.000000)">
                            <g transform="translate(2.000000, 0.000000)" id="Shape">
                                <path d="M6.85113967,8.01252803 C9.11395083,8.01252803 10.9483285,6.22141968 10.9483285,4.0126271 C10.9483285,1.80341348 9.11392606,0.0130233931 6.85113967,0.0130233931 C4.58842761,0.0130233931 2.75375268,1.80341348 2.75395081,4.0126271 C2.75395081,6.22141968 4.58842761,8.01252803 6.85113967,8.01252803 Z M8.72933163,9.34612556 L5.31454523,9.34612556 C2.39154834,9.34612556 0.0217402759,11.6591163 0.0217402759,14.5124166 L0.0217402759,14.8457169 C0.0217402759,16.0119088 2.39154832,16.0130234 5.31454523,16.0130234 L8.72933161,16.0130234 C11.6520313,16.0130234 14.0217403,15.9699274 14.0217403,14.8457169 L14.0217403,14.5124166 C14.0217403,11.6591163 11.6522295,9.34612556 8.72933163,9.34612556 Z"></path>
                            </g>
                        </g>
                    </g>
                </g>
            </g>
        </g>
    </g>
</svg>