<?xml version="1.0" encoding="UTF-8"?>
<svg width="95px" height="24px" viewBox="0 0 95 24" version="1.1" xmlns="http://www.w3.org/2000/svg" xmlns:xlink="http://www.w3.org/1999/xlink">
    <!-- Generator: Sketch 55.1 (78136) - https://sketchapp.com -->
    <title>logo1</title>
    <desc>Created with Sketch.</desc>
    <g id="页面2" stroke="none" stroke-width="1" fill="none" fill-rule="evenodd">
        <g id="财务报告系统" transform="translate(-43.000000, -12.000000)">
            <g id="左侧导航-修改后">
                <g id="logo1" transform="translate(43.000000, 12.000000)">
                    <path d="M92.1863082,2.46713684 L91.6651096,2.46713684 L91.6651096,1.55008421 L92.1921644,1.55008421 C92.4114452,1.55008421 92.5786712,1.58797895 92.6918904,1.6644 C92.8077123,1.74018947 92.8649726,1.84503158 92.8649726,1.98018947 C92.8649726,2.12608421 92.8025068,2.24355789 92.6769247,2.33324211 C92.5513425,2.42229474 92.3873699,2.46713684 92.1863082,2.46713684 L92.1863082,2.46713684 Z M93.0796986,3.07534737 C92.9703836,2.93955789 92.8825411,2.84418947 92.8142192,2.78861053 C92.7452466,2.73303158 92.663911,2.69008421 92.5702123,2.65976842 L92.5702123,2.65155789 C93.0751438,2.54418947 93.3276096,2.30987368 93.3276096,1.94987368 C93.3276096,1.73134737 93.233911,1.56082105 93.0452123,1.43955789 C92.8571644,1.31703158 92.5968904,1.2564 92.2650411,1.2564 L91.2232945,1.25703158 L91.2245959,3.85408421 L91.666411,3.85408421 L91.6657603,2.76082105 L91.9832945,2.76018947 C92.1147329,2.76018947 92.2266507,2.78671579 92.321,2.83850526 C92.4153493,2.89092632 92.5194589,2.98818947 92.6320274,3.13282105 L93.1994247,3.85345263 L93.7193219,3.85282105 L93.0796986,3.07534737 Z" id="Fill-1" fill="#001E50"></path>
                    <path d="M92.1952226,4.47966351 C91.0148801,4.48029474 90.0570719,3.63397895 90.0564199,2.58997895 C90.0551199,1.54597895 91.0122774,0.699663158 92.1926199,0.698399646 C93.373613,0.697768421 94.3301199,1.54345263 94.3314216,2.58745263 C94.3320719,3.63145263 93.3749144,4.47903158 92.1952226,4.47966351 M92.1926199,0.465346111 C90.8658733,0.465978947 89.7922432,1.41776842 89.7928935,2.58997895 C89.7935445,3.76408421 90.868476,4.71334737 92.1952226,4.7127161 C93.5219692,4.71208421 94.5955993,3.76092632 94.5949489,2.58682105 C94.5949489,1.41461053 93.5193664,0.464084211 92.1926199,0.465346111" id="Fill-3" fill="#001E50"></path>
                    <polygon id="Fill-5" fill="#001E50" points="6.19835959 10.0244842 3.66719521 5.47711579 0.574489726 5.47901053 0.58034589 14.5769053 3.18438699 14.5756421 3.16551712 8.66785263 5.27048288 12.4364842 6.99154452 12.4358526 8.96181849 8.46322105 9.02753767 14.5724842 11.9692842 14.5705895 11.9640788 5.47206316 8.64753767 5.47395789"></polygon>
                    <path d="M18.7386199,12.5331789 C18.7386199,12.5331789 18.1055034,13.3011789 16.9791678,13.2910737 C16.1267705,13.2841263 15.7194418,12.6241263 16.0389281,12.0279158 C16.6837568,10.8241263 18.7496815,11.1936 18.7496815,11.1936 L18.7386199,12.5331789 Z M17.3402979,7.34474798 C15.0160514,7.34223158 14.2658116,7.82349474 14.2658116,7.82349474 L14.2664623,9.45296842 C14.2664623,9.45296842 15.4279349,8.78791579 16.8828664,8.85991579 C18.3371473,8.93128421 18.7366678,9.45044211 18.8193048,9.67844211 C18.9012911,9.90644211 18.8193048,10.0176 18.8193048,10.0176 C18.8193048,10.0176 16.545161,9.82181053 15.1852295,10.4660211 C13.8239966,11.1102316 13.0991336,11.8542316 13.7407089,13.5948632 C13.7407089,13.5948632 14.339339,14.4140211 15.0908801,14.6837053 C15.8417705,14.9527579 17.2095103,14.8820211 17.9714623,14.2902316 C18.7347158,13.6984421 18.7158459,13.6384421 18.7158459,13.6384421 L18.7164966,14.5668632 L21.0980034,14.5656 L21.09475,8.89907368 C21.09475,8.89907368 20.0042021,7.34665263 17.3402979,7.34474798 L17.3402979,7.34474798 Z" id="Fill-7" fill="#001E50"></path>
                    <polygon id="Fill-9" fill="#001E50" points="31.4196884 7.60578947 28.5566747 7.60768421 26.8206473 9.47210526 25.1067432 7.60957895 22.1031815 7.61147368 25.3266747 11.0763158 22.048524 14.5961053 25.0995856 14.5942105 26.8245514 12.6874737 28.5963664 14.5923158 31.5290034 14.5910526 28.2885925 11.0681053"></polygon>
                    <path d="M1.21717123,19.9052211 L1.2184726,21.9471158 L1.93682877,21.9458526 C2.21271918,21.9458526 2.42093836,21.8365895 2.56213699,21.6161684 C2.67991096,21.4304842 2.73912329,21.1911158 2.73912329,20.8986947 C2.7384726,20.4932211 2.64217123,20.2128 2.45282192,20.0568 C2.32789041,19.9551158 2.15155479,19.9045895 1.92641781,19.9045895 L1.21717123,19.9052211 Z M0.495561644,22.4871158 L0.494260274,19.3658526 L2.05395205,19.3652193 C2.58491096,19.3645895 2.97336986,19.5382737 3.21997945,19.8862737 C3.40086986,20.1408 3.49131507,20.4629053 3.49131507,20.8506947 C3.49131507,21.2706947 3.39306164,21.6262737 3.19655479,21.9168 C2.94083562,22.2957474 2.55107534,22.4858526 2.0259726,22.4864842 L0.495561644,22.4871158 Z" id="Fill-11" fill="#001E50"></path>
                    <path d="M5.44024658,21.6525474 L5.44024658,21.3563368 C5.40771233,21.3797053 5.35500685,21.4024421 5.28278082,21.4245474 C5.21055479,21.4466526 5.10123973,21.4674947 4.9554863,21.4883368 C4.80973288,21.5079158 4.70562329,21.5376 4.64315753,21.5748632 C4.55141096,21.6304421 4.50586301,21.7157053 4.50586301,21.8319158 C4.50586301,21.9279158 4.54165068,22.0005474 4.61387671,22.0491789 C4.67308904,22.0902316 4.7440137,22.1104421 4.826,22.1104421 C4.9899726,22.1104421 5.13312329,22.0681263 5.25610274,21.9834947 C5.37908219,21.8994947 5.44024658,21.7896 5.44024658,21.6525474 M6.11500685,20.7765474 L6.11565753,22.0314947 C6.11565753,22.1584421 6.12802055,22.2468632 6.15469863,22.2967579 C6.18072603,22.3466526 6.21846575,22.3776 6.26791781,22.3927579 L6.26791781,22.4837053 L5.52418493,22.4837053 C5.49230137,22.3971789 5.47017808,22.3062316 5.46106849,22.2102316 C5.34915068,22.3150737 5.24699315,22.3889684 5.15589726,22.4319158 C5.00558904,22.5077053 4.82404795,22.5456 4.61387671,22.5456 C4.39459589,22.5456 4.21305479,22.4938105 4.06795205,22.3889684 C3.90072603,22.2670737 3.81678767,22.0952842 3.81678767,21.8717053 C3.81678767,21.6538105 3.88576027,21.4826526 4.02305479,21.3588632 C4.16165068,21.2369684 4.34579452,21.1599158 4.57873973,21.1308632 L5.19884247,21.0481263 C5.27432192,21.0386526 5.32897945,21.0247579 5.3615137,21.0045474 C5.41356849,20.9729684 5.43959589,20.9262316 5.43959589,20.8643368 C5.43959589,20.7519158 5.3875411,20.6742316 5.28278082,20.6350737 C5.21706164,20.6079158 5.11815753,20.5946526 4.98802055,20.5952842 C4.83315753,20.5952842 4.72189041,20.6319158 4.65226712,20.7045474 C4.60671918,20.7506526 4.57743836,20.8226526 4.56377397,20.9173895 L3.90007534,20.9180211 C3.93586301,20.5990737 4.07380822,20.3754947 4.31326027,20.2472842 C4.49024658,20.1550737 4.74271233,20.1083292 5.07000685,20.1083292 C5.33288356,20.1077053 5.55281507,20.1462316 5.73045205,20.2251789 C5.98617123,20.3382316 6.11500685,20.5213895 6.11500685,20.7765474" id="Fill-13" fill="#001E50"></path>
                    <path d="M7.50161644,19.5407368 L7.50161644,20.1672632 L7.92976712,20.1672632 L7.93041781,20.6017895 L7.50226712,20.6024211 L7.50291781,21.8605263 C7.50291781,21.9363158 7.51788356,21.9862105 7.54716438,22.0102105 C7.57709589,22.0348421 7.65713014,22.0474737 7.78856849,22.0474737 L7.93106849,22.0474737 L7.93106849,22.5003158 L7.6070274,22.5085263 L7.51853425,22.5085263 C7.23939041,22.5085263 7.04678767,22.4643158 6.9420274,22.374 C6.85678767,22.302 6.81384247,22.1807368 6.81384247,22.0089474 L6.81319178,20.6030526 L6.45856849,20.6030526 L6.45856849,20.1685263 L6.81319178,20.1678947 L6.8125411,19.5413684 L7.50161644,19.5407368 Z" id="Fill-15" fill="#001E50"></path>
                    <path d="M9.81584247,21.6500842 L9.81584247,21.3538737 C9.78200685,21.3772421 9.73060274,21.3999789 9.65772603,21.4220842 C9.58615068,21.4441895 9.47683562,21.4650316 9.33108219,21.4858737 C9.18467808,21.5054526 9.08056849,21.5351368 9.01875342,21.5724 C8.92635616,21.6273474 8.88080822,21.7132421 8.88080822,21.8288211 C8.88080822,21.9254526 8.91724658,21.9974526 8.98882192,22.0467158 C9.04803425,22.0877684 9.1189589,22.1079789 9.20094521,22.1079789 C9.36491781,22.1079789 9.50806849,22.0656632 9.63104795,21.9810316 C9.75467808,21.8970316 9.81584247,21.7871368 9.81584247,21.6500842 M10.4893014,20.7740842 L10.4899521,22.0290316 C10.4899521,22.1559789 10.5036164,22.2444 10.5302945,22.2942947 C10.5556712,22.3441895 10.593411,22.3751368 10.642863,22.3902947 L10.642863,22.4812421 L9.89978082,22.4812421 C9.86724658,22.3947158 9.84512329,22.3037684 9.8360137,22.2077684 C9.72409589,22.3126105 9.62193836,22.3865053 9.53084247,22.4294526 C9.37988356,22.5052421 9.19899315,22.5431368 8.9894726,22.5431368 C8.77019178,22.5431368 8.58734932,22.4913474 8.44354795,22.3865053 C8.27567123,22.2646105 8.19108219,22.0921895 8.19108219,21.8692421 C8.19108219,21.6513474 8.26005479,21.4801895 8.39865068,21.3564 C8.53594521,21.2345053 8.72139041,21.1574526 8.95433562,21.1284 L9.57378767,21.0456632 C9.64991781,21.0361895 9.70392466,21.0222947 9.73710959,21.0020842 C9.78916438,20.9705053 9.81519178,20.9237684 9.81519178,20.8618737 C9.81519178,20.7494526 9.7624863,20.6717684 9.65707534,20.6326105 C9.59265753,20.6054526 9.49310274,20.5921895 9.36231507,20.5921895 C9.20810274,20.5921895 9.09683562,20.6294526 9.02786301,20.7020842 C8.98166438,20.7481895 8.95173288,20.8195579 8.93936986,20.9149263 L8.27502055,20.9155579 C8.3114589,20.5966105 8.44810274,20.3724 8.68755479,20.2441895 C8.86584247,20.1526105 9.11765753,20.1058737 9.44560274,20.1052421 C9.70847945,20.1052421 9.92776027,20.1437684 10.1047466,20.2227158 C10.3611164,20.3357684 10.4893014,20.5189263 10.4893014,20.7740842" id="Fill-17" fill="#001E50"></path>
                    <polygon id="Fill-19" fill="#001E50" points="13.2065616 21.1825895 13.2065616 21.8173263 12.4680342 21.8179579 12.4680342 21.1825895"></polygon>
                    <polygon id="Fill-21" fill="#001E50" points="16.4171062 19.5777474 16.4171062 20.0646947 15.9421062 20.0646947 15.9427568 21.8924842 16.4184075 21.8962737 16.4190582 22.4337474 14.6875856 22.4343789 14.6875856 21.8969053 15.2048801 21.8893263 15.2035788 20.0646947 14.6862842 20.0653263 14.6862842 19.5828"></polygon>
                    <path d="M18.9448219,20.8741895 L18.9454726,22.4765053 L18.2563973,22.4765053 L18.2550959,21.0706105 C18.2550959,20.9398737 18.2355753,20.8432421 18.1958836,20.7794526 C18.1301644,20.6689263 18.0013288,20.6139789 17.806774,20.6139789 C17.6499589,20.6139789 17.5204726,20.6607158 17.4189658,20.7541895 C17.3168082,20.8464 17.2660548,20.9777684 17.2660548,21.1495579 L17.2667055,22.4771368 L16.5782808,22.4777684 L16.5769795,20.1624 L17.2361233,20.1624 L17.236774,20.5015579 C17.3480411,20.3537684 17.4671164,20.2489263 17.5926986,20.1895579 C17.7195822,20.1301895 17.866637,20.1005053 18.033863,20.0998737 C18.2993425,20.0998737 18.5173219,20.1674526 18.6878014,20.3019789 C18.8589315,20.4371368 18.9448219,20.6278737 18.9448219,20.8741895" id="Fill-23" fill="#001E50"></path>
                    <path d="M21.7400993,20.8637053 L21.065339,20.8643368 C21.0458185,20.7658105 21.0132842,20.6963368 20.9664349,20.6559158 C20.8948596,20.5921263 20.7731815,20.5599158 20.6027021,20.5599158 C20.435476,20.5605474 20.3190034,20.5858105 20.2532842,20.6344421 C20.2044829,20.6723368 20.1797568,20.7228632 20.1797568,20.7866526 C20.1797568,20.8769684 20.3209555,20.9496 20.6027021,21.0039158 C21.0067774,21.0822316 21.2683527,21.1453895 21.3906815,21.1952842 C21.6763322,21.3146526 21.8188322,21.4952842 21.8188322,21.7390737 C21.8188322,22.0352842 21.6795856,22.2512842 21.4010925,22.3877053 C21.1980788,22.4862316 20.9547226,22.5367579 20.6723253,22.5367579 C20.3216062,22.5367579 20.0379075,22.4818105 19.8212295,22.3719158 C19.5492432,22.2323368 19.4125993,22.0201263 19.4125993,21.7365474 L20.1211952,21.7359158 C20.1211952,21.8432842 20.1641404,21.9266526 20.2513322,21.9860211 C20.3391747,22.0453895 20.4855788,22.0744421 20.6918459,22.0744421 C20.8467089,22.0744421 20.9625308,22.0453895 21.0412637,21.9879158 C21.0998253,21.9437053 21.1297568,21.8931789 21.1297568,21.8357053 C21.1297568,21.7397053 20.9898596,21.6639158 20.7113664,21.6096 C20.2981815,21.5312842 20.0372568,21.4687579 19.9292432,21.4226526 C19.6468459,21.3064421 19.5049966,21.1232842 19.5049966,20.8744421 C19.5049966,20.6704421 19.5791747,20.4999158 19.7268801,20.3597053 C19.9136267,20.1860211 20.1921199,20.0994947 20.5630103,20.0988567 C20.8909555,20.0982316 21.1505788,20.1437053 21.3412295,20.2327579 C21.6054075,20.3609684 21.7400993,20.5706526 21.7400993,20.8637053" id="Fill-25" fill="#001E50"></path>
                    <path d="M22.3393151,20.1587368 L23.3374301,20.1587368 L23.3393151,22.4741053 L22.3412001,22.4741053 L22.3393151,20.1587368 Z M23.3364875,19.3187368 L23.3374301,19.8833684 L22.3393151,19.884 L22.3393151,19.3187368 L23.3364875,19.3187368 Z" id="Fill-27" fill="#001E50"></path>
                    <path d="M24.2748425,21.3281053 C24.2748425,21.5017895 24.3138836,21.6464211 24.3919658,21.7594737 C24.4902192,21.9015789 24.6327192,21.9729474 24.8188151,21.9723199 C25.0309384,21.9723199 25.1858014,21.9003158 25.2840548,21.7588421 C25.362137,21.6464211 25.4018288,21.4935789 25.4018288,21.3015789 C25.4018288,21.1045263 25.351726,20.9447368 25.2534726,20.8234737 C25.1461096,20.6895789 24.9990548,20.6232632 24.8129589,20.6232632 C24.6659041,20.6238947 24.5455274,20.6725263 24.4505274,20.7716842 C24.3334041,20.8961053 24.2748425,21.0811579 24.2748425,21.3281053 L24.2748425,21.3281053 Z M25.4304589,20.1571579 L26.0896027,20.1571579 L26.0909041,22.3506316 C26.0909041,22.6556842 26.0323425,22.8836842 25.9145685,23.034 C25.7135068,23.2891579 25.3322055,23.4173684 24.7680616,23.418 C24.4635411,23.418 24.2052192,23.3643158 23.9950479,23.2563158 C23.749089,23.1293684 23.6254589,22.9512632 23.6254589,22.722 L24.3737466,22.7207368 C24.3926164,22.7965263 24.4264521,22.8502105 24.4726507,22.8824211 C24.5474795,22.9316842 24.6756644,22.9563158 24.8559041,22.9556842 C25.2202877,22.9556842 25.4024795,22.7788421 25.4024795,22.4245263 L25.4024795,22.146 L25.3914178,22.1371579 C25.3263493,22.242 25.2476164,22.3215789 25.1558699,22.3771579 C25.0348425,22.4491579 24.8806301,22.4864211 24.6938836,22.4864211 C24.3613836,22.4864211 24.0965548,22.3891579 23.8961438,22.1952632 C23.6762123,21.9798947 23.5655959,21.6786316 23.5655959,21.2895789 C23.5655959,20.9062105 23.6742603,20.6074737 23.8902877,20.3933684 C24.0893973,20.1956842 24.3438151,20.0971579 24.6528904,20.0965263 C24.8695685,20.0965263 25.0478562,20.1438947 25.1890548,20.2398947 C25.2808014,20.3036842 25.3575822,20.3908421 25.4206986,20.5007368 L25.4304589,20.1571579 Z" id="Fill-29" fill="#001E50"></path>
                    <path d="M29.0631678,20.8686316 L29.0638185,22.4703158 L28.3747432,22.4709474 L28.3734418,21.0644211 C28.3734418,20.9343158 28.3539212,20.8370526 28.3142295,20.7732632 C28.2485103,20.6633684 28.119024,20.6077895 27.9257705,20.6077895 C27.7683048,20.6084211 27.6388185,20.6545263 27.5373116,20.748 C27.4351541,20.8408421 27.38375,20.9715789 27.3844007,21.144 L27.3850514,22.4715789 L26.6966267,22.4715789 L26.6946747,19.3509474 L27.3830993,19.3503158 L27.38375,20.4562105 C27.4371062,20.3551579 27.5321062,20.2692632 27.6713527,20.1991579 C27.81125,20.1290526 27.9713185,20.0943158 28.1522089,20.0943158 C28.4176884,20.0943158 28.6363185,20.1618947 28.8054966,20.2964211 C28.9766267,20.4315789 29.0631678,20.6223158 29.0631678,20.8686316" id="Fill-31" fill="#001E50"></path>
                    <path d="M30.4741781,19.5271579 L30.4741781,20.1543158 L30.9029795,20.1536842 L30.9036301,20.5888421 L30.4748288,20.5894737 L30.4754795,21.8475789 C30.4754795,21.9227368 30.4904452,21.9732632 30.5190753,21.9972632 C30.5490068,22.0218947 30.6296918,22.0338947 30.7611301,22.0338947 L30.9042808,22.0338947 L30.9042808,22.4867368 L30.579589,22.4949474 L30.4910959,22.4955789 C30.2113014,22.4955789 30.02,22.4507368 29.9152397,22.3610526 C29.8293493,22.2890526 29.7870548,22.1671579 29.7864041,21.9953684 L29.7857534,20.5894737 L29.4317808,20.5894737 L29.4311301,20.1549474 L29.7857534,20.1549474 L29.7851027,19.5284211 L30.4741781,19.5271579 Z" id="Fill-33" fill="#001E50"></path>
                    <path d="M33.4966096,20.8568842 L32.8225,20.8575158 C32.8029795,20.7596211 32.7697945,20.6888842 32.7242466,20.6484632 C32.6520205,20.5853053 32.5296918,20.5537263 32.3592123,20.5537263 C32.1919863,20.5537263 32.0761644,20.5783579 32.0097945,20.6276211 C31.9616438,20.6655158 31.9369178,20.7160421 31.9369178,20.7792 C31.9369178,20.8701474 32.0774658,20.9421474 32.359863,20.9977263 C32.7632877,21.0754105 33.0261644,21.1392 33.1471918,21.1884632 C33.4328425,21.3072 33.5759954,21.4884632 33.5759954,21.7328842 C33.5766438,22.0284632 33.4367466,22.2444632 33.1582534,22.3808842 C32.954589,22.4800421 32.7112329,22.5293053 32.4288356,22.5293053 C32.0787671,22.5293053 31.7950685,22.4749895 31.5783904,22.3650947 C31.3057534,22.2255158 31.1691096,22.0139368 31.1691096,21.7290947 L31.8777055,21.7290947 C31.8777055,21.8364632 31.9219521,21.9192 32.0084932,21.9792 C32.0956849,22.0385684 32.242089,22.0682526 32.4496575,22.0682526 C32.6025685,22.0676211 32.7203425,22.0385684 32.7984247,21.9804632 C32.857637,21.9375158 32.8869178,21.8869895 32.8869178,21.8288842 C32.8869178,21.7328842 32.7476712,21.6577263 32.4685274,21.6021474 C32.0546918,21.5244632 31.7950685,21.4625684 31.6857534,21.4158316 C31.4040068,21.2996211 31.2628082,21.1170947 31.2628082,20.8676211 C31.2621575,20.6636211 31.3356849,20.4930947 31.4833904,20.3535158 C31.670137,20.1792 31.9492808,20.0920421 32.3195205,20.0920421 C32.6474658,20.0920421 32.907089,20.1368842 33.0977397,20.2265684 C33.3638699,20.3535158 33.4966096,20.5644632 33.4966096,20.8568842" id="Fill-35" fill="#001E50"></path>
                    <polygon id="Fill-37" fill="#001E50" points="36.1791233 21.1690105 36.1791233 21.8043789 35.4412466 21.8043789 35.4405959 21.1690105"></polygon>
                    <path d="M37.5548014,21.5039368 L38.2640479,21.5033053 C38.2640479,21.6315158 38.3063425,21.7363579 38.3922329,21.8209895 C38.5197671,21.9454105 38.7266849,22.0079368 39.0116849,22.0079368 C39.2225068,22.0079368 39.3897329,21.9820421 39.513363,21.9289895 C39.6714795,21.8620421 39.7502123,21.7540421 39.7502123,21.6030947 C39.7502123,21.4906737 39.691,21.4047789 39.573226,21.3473053 C39.4931918,21.3094105 39.3396301,21.2664632 39.1099384,21.2172 L38.730589,21.1388842 C38.3531918,21.0605684 38.0968219,20.9797263 37.958226,20.8957263 C37.7252808,20.7542526 37.6088082,20.5294105 37.6088082,20.2218316 C37.6081575,19.9818316 37.6901438,19.7790947 37.8541164,19.6142526 C38.086411,19.3793053 38.4573014,19.2612 38.966137,19.2605684 C39.4482945,19.2605684 39.8126781,19.3805684 40.0592877,19.6205684 C40.2492877,19.8056211 40.3449384,20.0203579 40.3449384,20.2660421 L39.6356918,20.2660421 C39.6194247,20.1422526 39.5784315,20.0475158 39.5127123,19.9812 C39.3949384,19.8612 39.1951781,19.8012 38.9121301,19.8012 C38.7449041,19.8012 38.6069589,19.8270947 38.4989452,19.8801474 C38.3649041,19.9464632 38.2965822,20.0443579 38.2965822,20.1750947 C38.2965822,20.2818316 38.3401781,20.3633053 38.4254178,20.4176211 C38.4748699,20.4498316 38.5568562,20.4782526 38.6713767,20.5009895 L39.5328836,20.6873053 C39.8250411,20.7510947 40.0391164,20.8332 40.178363,20.9348842 C40.3644589,21.0706737 40.4581575,21.2677263 40.4588082,21.5254105 C40.4588082,21.8412 40.3410342,22.0856211 40.1048356,22.2593053 C39.845863,22.4513053 39.4996986,22.5466761 39.0663425,22.5466761 C38.4924384,22.5473053 38.0786027,22.4235158 37.826137,22.1740421 C37.6452466,21.9972 37.5548014,21.7736211 37.5548014,21.5039368" id="Fill-39" fill="#001E50"></path>
                    <path d="M42.7812329,21.3046737 C42.7812329,21.1133053 42.7434932,20.9592 42.6680137,20.8436211 C42.5626027,20.6806737 42.3895205,20.5998316 42.1507192,20.6004595 C41.9145205,20.6004595 41.7440411,20.6806737 41.6399315,20.8398316 C41.5611986,20.9617263 41.5215068,21.1170947 41.5215068,21.3059368 C41.5215068,21.4973053 41.5585959,21.6514105 41.634726,21.7663579 C41.740137,21.9286737 41.9125685,22.0101474 42.1520205,22.0101474 C42.3882192,22.0101474 42.5586986,21.9299368 42.6634589,21.7701474 C42.7415411,21.6488842 42.7812329,21.4935158 42.7812329,21.3046737 M43.4898288,21.3046737 C43.4898288,21.7019368 43.3557877,22.0101474 43.0870548,22.2274105 C42.8436986,22.4244632 42.5326712,22.5242526 42.1520205,22.5248842 C41.7713699,22.5248842 41.4596918,22.4250947 41.217637,22.2286737 C40.9476027,22.0114105 40.8135616,21.7038316 40.812911,21.3059368 C40.812911,20.9086737 40.9469521,20.6004632 41.2163356,20.3825684 C41.4577397,20.1861474 41.7700685,20.0863579 42.1507192,20.0857263 C42.5313699,20.0857263 42.8423973,20.1848842 43.0857534,20.3819368 C43.355137,20.5992 43.4891781,20.9067789 43.4898288,21.3046737" id="Fill-41" fill="#001E50"></path>
                    <polygon id="Fill-43" fill="#001E50" points="44.6799315 19.3402737 44.6818836 22.4615368 43.9928082 22.4615368 43.9908562 19.3409053"></polygon>
                    <path d="M47.7020377,20.1445263 L47.703339,22.4592632 L47.0435445,22.4605263 L47.0435445,22.1333684 C46.8698116,22.3929474 46.6017295,22.5224211 46.2366952,22.5224211 C45.9640582,22.5224211 45.7512842,22.4542105 45.5964212,22.3171579 C45.4298459,22.1693684 45.3459075,21.9533684 45.3459075,21.6685263 L45.3446062,20.1457895 L46.0336815,20.1451579 L46.0343322,21.5807368 C46.0343322,21.7436842 46.0818322,21.8598947 46.1774829,21.9293684 C46.2497089,21.9817895 46.3512158,22.0076842 46.4820034,22.0076842 C46.6238527,22.0076842 46.7396747,21.9735789 46.8320719,21.9028421 C46.95375,21.8106316 47.0129623,21.6697895 47.0129623,21.4809474 L47.0123116,20.1451579 L47.7020377,20.1445263 Z" id="Fill-45" fill="#001E50"></path>
                    <path d="M49.1184486,19.5172421 L49.1190993,20.1437684 L49.54725,20.1431368 L49.54725,20.5782947 L49.1190993,20.5782947 L49.1204007,21.8364 C49.1204007,21.9121895 49.1340651,21.9620842 49.1646473,21.9867158 C49.1939281,22.0113474 49.274613,22.0239789 49.4054007,22.0239789 L49.5485514,22.0233474 L49.5485514,22.4768211 L49.2245103,22.4844 L49.1347158,22.4850316 C48.8568733,22.4850316 48.6649212,22.4401895 48.560161,22.3505053 C48.4736199,22.2778737 48.4313253,22.1559789 48.4306747,21.9841895 L48.430024,20.5782947 L48.0767021,20.5789263 L48.0760514,20.1437684 L48.430024,20.1437684 L48.4293733,19.5172421 L49.1184486,19.5172421 Z" id="Fill-47" fill="#001E50"></path>
                    <path d="M50.0048767,20.1426947 L51.0029917,20.1426947 L51.0048767,22.4580632 L50.0067617,22.4580632 L50.0048767,20.1426947 Z M51.0029917,19.3026947 L51.0029917,19.8673263 L50.0048767,19.8679579 L50.0048767,19.3026947 L51.0029917,19.3026947 Z" id="Fill-49" fill="#001E50"></path>
                    <path d="M53.170589,21.2985474 C53.170589,21.1071789 53.1321986,20.9537053 53.0567192,20.8374947 C52.9519589,20.6745474 52.7788767,20.5943368 52.5400753,20.5943368 C52.3038767,20.5943368 52.1327466,20.6745474 52.0279863,20.8337053 C51.9499041,20.9556 51.9102123,21.1109684 51.9102123,21.2998105 C51.9102123,21.4911789 51.9479521,21.6452842 52.0240822,21.7608632 C52.1281918,21.9225474 52.301274,22.0046526 52.540726,22.0040247 C52.7769247,22.0040247 52.9474041,21.9244421 53.0521644,21.7646526 C53.1308973,21.6427579 53.170589,21.4873895 53.170589,21.2985474 M53.8785366,21.2985474 C53.8791849,21.6964421 53.7451438,22.0040211 53.4757603,22.2212842 C53.2330548,22.4183368 52.9213767,22.5187579 52.540726,22.5187579 C52.1600753,22.5187579 51.8490479,22.4196 51.6056918,22.2225474 C51.3369589,22.0052842 51.2016141,21.6977053 51.2016141,21.2998105 C51.2009658,20.9025474 51.3363082,20.5949684 51.6050411,20.3770737 C51.8470959,20.1800211 52.158774,20.0808632 52.5394247,20.0802286 C52.9200753,20.0796 53.2317534,20.1787579 53.4751096,20.3758105 C53.7438425,20.5930737 53.8785366,20.9012842 53.8785366,21.2985474" id="Fill-51" fill="#001E50"></path>
                    <path d="M56.7277534,20.8532211 L56.7290548,22.4542737 L56.0399795,22.4549053 L56.0386781,21.0483789 C56.0386781,20.9182737 56.0185068,20.8210105 55.9801164,20.7572211 C55.9143973,20.6473263 55.784911,20.5917474 55.5903562,20.5923789 C55.4341918,20.5923789 55.3034041,20.6384842 55.2025479,20.7325895 C55.1010411,20.8248 55.0502877,20.9561684 55.0502877,21.1285895 L55.051589,22.4555368 L54.3612123,22.4555368 L54.359911,20.1401684 L55.0197055,20.1401684 L55.0197055,20.4793263 C55.1316233,20.3315368 55.2500479,20.2273263 55.3769315,20.1679579 C55.5025137,20.1085895 55.6502192,20.0782737 55.8167945,20.0782737 C56.0829247,20.0782737 56.3009041,20.1458526 56.4707329,20.2810105 C56.6425137,20.4155368 56.7277534,20.6062737 56.7277534,20.8532211" id="Fill-53" fill="#001E50"></path>
                    <path d="M59.5230308,20.8421053 L58.8489212,20.8421053 C58.8300514,20.7442105 58.7968664,20.6741053 58.7506678,20.6336842 C58.6777911,20.5705263 58.5567637,20.5383158 58.3862842,20.5389474 C58.2190582,20.5389474 58.1025856,20.5635789 58.0368664,20.6128421 C57.9874144,20.6507368 57.963339,20.7012632 57.963339,20.7644211 C57.963339,20.8553684 58.103887,20.9273684 58.3862842,20.9823158 C58.7890582,21.0606316 59.0519349,21.1237895 59.1742637,21.1736842 C59.4592637,21.2924211 59.6024144,21.4736842 59.6024144,21.7174737 C59.6024144,22.0136842 59.4625171,22.2296842 59.184024,22.3654737 C58.981661,22.4646316 58.7383048,22.5145263 58.4559075,22.5145263 C58.1051884,22.5145263 57.820839,22.4595789 57.6048116,22.3496842 C57.3328253,22.2101053 57.1961815,21.9985263 57.1955308,21.7143158 L57.9047774,21.7143158 C57.9047774,21.8216842 57.9477226,21.9044211 58.0355651,21.9644211 C58.1221062,22.0237895 58.269161,22.0528421 58.4760788,22.0528421 C58.6302911,22.0528421 58.7467637,22.0237895 58.8248459,21.9656842 C58.8847089,21.9221053 58.913339,21.8715789 58.913339,21.8141053 C58.913339,21.7181053 58.7740925,21.6423158 58.4955993,21.5873684 C58.0817637,21.5096842 57.820839,21.4471579 57.7128253,21.4010526 C57.4304281,21.2848421 57.2892295,21.1016842 57.2892295,20.8522105 C57.2892295,20.6482105 57.3621062,20.4783158 57.5098116,20.3387368 C57.6965582,20.1637895 57.9757021,20.0772566 58.3459418,20.0772566 C58.6745377,20.0766316 58.934161,20.1214737 59.1248116,20.2111579 C59.3902911,20.3387368 59.5230308,20.5490526 59.5230308,20.8421053" id="Fill-55" fill="#001E50"></path>
                    <polygon id="Fill-57" fill="#6D6E6D" points="31.8775103 7.05593684 33.5081267 7.05530526 33.5003185 12.9498316 31.8807637 12.9612 31.8820651 14.5906737 38.0538116 14.5868842 38.0525103 12.9574105 36.4095308 12.9586737 36.4056267 7.04267368 38.0492568 7.04204211 38.0479555 5.46435789 31.8768596 5.46751579"></polygon>
                    <path d="M47.3195651,8.96671579 C47.2024418,8.68692632 46.5725788,7.43008421 44.7142226,7.37703158 C43.067339,7.33092632 42.2624418,8.38818947 42.2624418,8.38818947 L42.2624418,7.59934737 L39.680524,7.60124211 L39.6844281,14.5132421 L42.2774075,14.5119789 L42.2865171,9.64376842 C42.6736747,9.18776842 43.3211062,9.06650526 43.8000103,9.07282105 C44.6335377,9.08355789 44.9256952,9.65324211 44.9256952,9.65324211 L44.8944623,14.5107158 L47.4757295,14.5088211 L47.4731267,9.30966316 C47.4731267,9.30966316 47.4379897,9.24650526 47.3195651,8.96671579" id="Fill-59" fill="#6D6E6D"></path>
                    <path d="M53.640839,10.4170737 C52.5971404,10.3343368 51.7330308,10.0002316 51.4623459,9.73054737 C51.1929623,9.46086316 51.6341267,8.89307368 52.0557705,8.84128421 C52.4787158,8.78886316 53.3154966,8.74528421 54.6656678,9.36738947 L55.6156678,9.83412632 L55.6150171,7.89265263 C55.6150171,7.89265263 54.3116952,7.37286316 52.5646062,7.31349474 C50.7570034,7.25223158 49.7133048,7.76128421 49.0567637,8.66507368 C48.4770034,9.46149474 48.6142979,11.1004421 50.2227911,11.5671789 C51.0257363,11.7996 51.9405993,11.8981263 52.4995377,12.0478105 C53.058476,12.1968632 53.2634418,12.3970737 53.1983733,12.7084421 C53.0779966,13.2977053 52.1013185,13.3242316 51.4649486,13.2737053 C49.2975171,13.1031789 48.8114555,12.4116 48.8114555,12.4116 L48.8127568,14.2798105 C48.8127568,14.2798105 49.99375,14.7345474 51.3901199,14.7964421 C52.7142637,14.8539158 53.343476,14.8709684 54.3351199,14.4408632 C55.5317295,13.9204421 56.4810788,12.7065474 55.6820377,11.4932842 C55.6820377,11.4932842 55.1257021,10.5339158 53.640839,10.4170737" id="Fill-61" fill="#6D6E6D"></path>
                    <polygon id="Fill-63" fill="#6D6E6D" points="56.9521096 6.77128421 59.863274 6.77002105 59.8619726 4.89044211 56.9514589 4.89233684"></polygon>
                    <polygon id="Fill-65" fill="#6D6E6D" points="56.9565342 14.5349684 59.8670479 14.5330737 59.8631438 7.57875789 56.9526301 7.58065263"></polygon>
                    <path d="M66.7098459,12.4160211 C66.7098459,12.4160211 66.1320377,12.8164421 65.2009075,12.7469684 C64.0296747,12.6604421 63.6730993,11.4958105 63.8155993,10.7069684 C63.9502911,9.95602105 64.5365582,9.30549474 65.1852911,9.17033684 C66.1600171,8.96823158 66.738476,9.29096842 66.738476,9.29096842 L66.7098459,12.4160211 Z M66.7332705,8.13012632 C66.7332705,8.13012632 65.705839,7.31665263 64.5443664,7.34823158 C63.3822432,7.37981053 62.0977911,8.02402105 61.48875,9.15581053 C60.8797089,10.2876 61.0514897,12.5543368 62.1075514,13.4562316 C63.163613,14.3587579 64.3205308,14.6132842 65.4930651,14.3025474 C66.5270034,14.0290737 66.771661,13.6551789 66.771661,13.6551789 L66.7918322,14.5880211 C66.7918322,14.5880211 65.9036473,15.6452842 64.8065925,15.6459158 C62.2871404,15.6465474 61.8850171,14.9574947 61.8850171,14.9574947 L61.8752568,16.7833895 C61.8752568,16.7833895 63.1336815,17.3353895 65.5945719,17.2381263 C68.2103253,17.1351789 69.148613,15.6212842 69.2657363,14.5273895 L69.2611815,7.57370526 L66.7267637,7.57496842 L66.7332705,8.13012632 Z" id="Fill-67" fill="#6D6E6D"></path>
                    <path d="M76.1402877,7.35751579 C74.751726,7.34172632 73.8524795,8.29477895 73.8524795,8.29477895 L73.8498767,4.88109474 L71.3408356,4.88298947 L71.3466918,14.4741474 L73.9032329,14.4728842 L73.9240548,9.67667368 C74.1602534,9.25793684 74.9352192,9.10635789 75.3588151,9.11077895 C76.0654589,9.11898947 76.4858014,9.60846316 76.4858014,9.60846316 L76.532,14.4709895 L79.1126164,14.4697263 C79.1126164,14.4697263 79.1100137,10.1560421 79.109363,9.40193684 C79.1087123,9.02488421 79.1087123,8.88404211 79.1087123,8.83604211 C78.1847397,7.20277895 76.1402877,7.35751579 76.1402877,7.35751579" id="Fill-69" fill="#6D6E6D"></path>
                    <path d="M86.28375,9.12517895 L86.2824486,7.5336 L83.6302568,7.53549474 L83.6536815,5.69254737 L81.0724144,5.69381053 L81.0737158,7.52917895 L80.0794692,7.53738947 L80.0801199,9.19149474 L81.0743664,9.19086316 L81.0769692,13.2329684 C81.0769692,13.2329684 81.6827568,14.7241263 83.5775514,14.7853895 C83.5775514,14.7853895 85.6961815,14.9685474 86.2870034,14.4658105 L86.2857021,12.9165474 L85.6460788,12.9373895 C85.6460788,12.9373895 85.6779623,13.1742316 85.6174486,13.2070737 C85.4742979,13.2626526 85.0389897,13.2493895 84.656387,13.2209684 C83.7324144,13.1521263 83.6458733,12.5988632 83.6458733,12.5988632 L83.6549829,9.12644211 L86.28375,9.12517895 Z" id="Fill-71" fill="#6D6E6D"></path>
                    <polygon id="Fill-73" fill="#6D6E6D" points="31.8775103 7.05593684 33.5081267 7.05530526 33.5003185 12.9498316 31.8807637 12.9612 31.8820651 14.5906737 38.0538116 14.5868842 38.0525103 12.9574105 36.4095308 12.9586737 36.4056267 7.04267368 38.0492568 7.04204211 38.0479555 5.46435789 31.8768596 5.46751579"></polygon>
                    <path d="M47.3195651,8.96671579 C47.2024418,8.68692632 46.5725788,7.43008421 44.7142226,7.37703158 C43.067339,7.33092632 42.2624418,8.38818947 42.2624418,8.38818947 L42.2624418,7.59934737 L39.680524,7.60124211 L39.6844281,14.5132421 L42.2774075,14.5119789 L42.2865171,9.64376842 C42.6736747,9.18776842 43.3211062,9.06650526 43.8000103,9.07282105 C44.6335377,9.08355789 44.9256952,9.65324211 44.9256952,9.65324211 L44.8944623,14.5107158 L47.4757295,14.5088211 L47.4731267,9.30966316 C47.4731267,9.30966316 47.4379897,9.24650526 47.3195651,8.96671579" id="Fill-75" fill="#6D6E6D"></path>
                    <path d="M53.640839,10.4170737 C52.5971404,10.3343368 51.7330308,10.0002316 51.4623459,9.73054737 C51.1929623,9.46086316 51.6341267,8.89307368 52.0557705,8.84128421 C52.4787158,8.78886316 53.3154966,8.74528421 54.6656678,9.36738947 L55.6156678,9.83412632 L55.6150171,7.89265263 C55.6150171,7.89265263 54.3116952,7.37286316 52.5646062,7.31349474 C50.7570034,7.25223158 49.7133048,7.76128421 49.0567637,8.66507368 C48.4770034,9.46149474 48.6142979,11.1004421 50.2227911,11.5671789 C51.0257363,11.7996 51.9405993,11.8981263 52.4995377,12.0478105 C53.058476,12.1968632 53.2634418,12.3970737 53.1983733,12.7084421 C53.0779966,13.2977053 52.1013185,13.3242316 51.4649486,13.2737053 C49.2975171,13.1031789 48.8114555,12.4116 48.8114555,12.4116 L48.8127568,14.2798105 C48.8127568,14.2798105 49.99375,14.7345474 51.3901199,14.7964421 C52.7142637,14.8539158 53.343476,14.8709684 54.3351199,14.4408632 C55.5317295,13.9204421 56.4810788,12.7065474 55.6820377,11.4932842 C55.6820377,11.4932842 55.1257021,10.5339158 53.640839,10.4170737" id="Fill-77" fill="#6D6E6D"></path>
                    <polygon id="Fill-79" fill="#6D6E6D" points="56.9521096 6.77128421 59.863274 6.77002105 59.8619726 4.89044211 56.9514589 4.89233684"></polygon>
                    <polygon id="Fill-81" fill="#6D6E6D" points="56.9565342 14.5349684 59.8670479 14.5330737 59.8631438 7.57875789 56.9526301 7.58065263"></polygon>
                    <path d="M66.7098459,12.4160211 C66.7098459,12.4160211 66.1320377,12.8164421 65.2009075,12.7469684 C64.0296747,12.6604421 63.6730993,11.4958105 63.8155993,10.7069684 C63.9502911,9.95602105 64.5365582,9.30549474 65.1852911,9.17033684 C66.1600171,8.96823158 66.738476,9.29096842 66.738476,9.29096842 L66.7098459,12.4160211 Z M66.7332705,8.13012632 C66.7332705,8.13012632 65.705839,7.31665263 64.5443664,7.34823158 C63.3822432,7.37981053 62.0977911,8.02402105 61.48875,9.15581053 C60.8797089,10.2876 61.0514897,12.5543368 62.1075514,13.4562316 C63.163613,14.3587579 64.3205308,14.6132842 65.4930651,14.3025474 C66.5270034,14.0290737 66.771661,13.6551789 66.771661,13.6551789 L66.7918322,14.5880211 C66.7918322,14.5880211 65.9036473,15.6452842 64.8065925,15.6459158 C62.2871404,15.6465474 61.8850171,14.9574947 61.8850171,14.9574947 L61.8752568,16.7833895 C61.8752568,16.7833895 63.1336815,17.3353895 65.5945719,17.2381263 C68.2103253,17.1351789 69.148613,15.6212842 69.2657363,14.5273895 L69.2611815,7.57370526 L66.7267637,7.57496842 L66.7332705,8.13012632 Z" id="Fill-83" fill="#6D6E6D"></path>
                    <path d="M76.1402877,7.35751579 C74.751726,7.34172632 73.8524795,8.29477895 73.8524795,8.29477895 L73.8498767,4.88109474 L71.3408356,4.88298947 L71.3466918,14.4741474 L73.9032329,14.4728842 L73.9240548,9.67667368 C74.1602534,9.25793684 74.9352192,9.10635789 75.3588151,9.11077895 C76.0654589,9.11898947 76.4858014,9.60846316 76.4858014,9.60846316 L76.532,14.4709895 L79.1126164,14.4697263 C79.1126164,14.4697263 79.1100137,10.1560421 79.109363,9.40193684 C79.1087123,9.02488421 79.1087123,8.88404211 79.1087123,8.83604211 C78.1847397,7.20277895 76.1402877,7.35751579 76.1402877,7.35751579" id="Fill-85" fill="#6D6E6D"></path>
                    <path d="M86.28375,9.12517895 L86.2824486,7.5336 L83.6302568,7.53549474 L83.6536815,5.69254737 L81.0724144,5.69381053 L81.0737158,7.52917895 L80.0794692,7.53738947 L80.0801199,9.19149474 L81.0743664,9.19086316 L81.0769692,13.2329684 C81.0769692,13.2329684 81.6827568,14.7241263 83.5775514,14.7853895 C83.5775514,14.7853895 85.6961815,14.9685474 86.2870034,14.4658105 L86.2857021,12.9165474 L85.6460788,12.9373895 C85.6460788,12.9373895 85.6779623,13.1742316 85.6174486,13.2070737 C85.4742979,13.2626526 85.0389897,13.2493895 84.656387,13.2209684 C83.7324144,13.1521263 83.6458733,12.5988632 83.6458733,12.5988632 L83.6549829,9.12644211 L86.28375,9.12517895 Z" id="Fill-87" fill="#6D6E6D"></path>
                </g>
            </g>
        </g>
    </g>
</svg>